<svg width="193" height="72" viewBox="0 0 193 72" fill="none" xmlns="http://www.w3.org/2000/svg">
<path d="M19.0281 12.3429L21.3567 14.6716C23.6188 13.4296 25.8144 12.5204 27.9434 11.9437C30.1168 11.3228 32.3345 11.0123 34.5966 11.0123C36.3708 11.0123 38.0341 11.345 39.5865 12.0103C41.1389 12.6312 42.4917 13.5405 43.6449 14.7381C44.7982 15.9357 45.7074 17.4215 46.3727 19.1957C47.0824 20.9256 47.4373 22.9215 47.4373 25.1836V52.9939H26.147V29.5747L23.6854 30.5061V52.9939H2.39515V12.3429H19.0281ZM50.1822 42.0162C50.1822 38.5565 50.8475 35.8731 52.1782 33.9658C53.5532 32.0586 55.7044 30.5949 58.6318 29.5747C59.7406 29.1755 61.0047 28.8207 62.4241 28.5102C63.8434 28.1997 65.3293 27.9336 66.8817 27.7118C68.4341 27.49 70.0087 27.3126 71.6055 27.1796C73.2023 27.0465 74.7325 26.98 76.1962 26.98V24.8509C72.8252 24.8509 69.166 25.1614 65.2184 25.7824C61.3152 26.4033 57.4564 27.357 53.6419 28.6433V14.8046C56.4806 13.5183 59.6297 12.5647 63.0894 11.9437C66.5934 11.3228 70.6962 11.0123 75.3978 11.0123C78.8575 11.0123 81.8071 11.3228 84.2466 11.9437C86.6861 12.5647 88.682 13.607 90.2344 15.0707C91.7868 16.4901 92.9179 18.3752 93.6276 20.726C94.3372 23.0768 94.6921 25.9598 94.6921 29.3751V52.9939H78.0591V50.7319C78.0591 48.1149 77.7043 45.6311 76.9946 43.2803C76.2849 40.8851 75.3756 38.9113 74.2668 37.3589L72.2708 38.0908C72.8474 38.7561 73.3575 39.621 73.801 40.6855C74.2446 41.7057 74.6216 42.8589 74.9321 44.1452C75.2426 45.3871 75.4865 46.6956 75.6639 48.0706C75.8414 49.4012 75.9301 50.6653 75.9301 51.8629C74.2002 52.4839 72.2486 52.9939 70.0753 53.3931C67.9019 53.7923 65.3737 53.9919 62.4906 53.9919C58.3656 53.9919 55.283 52.883 53.2427 50.6653C51.2024 48.4919 50.1822 45.6089 50.1822 42.0162ZM115.363 12.3429L119.288 21.9901L115.762 31.1049L117.558 31.5707L124.943 12.3429H144.304L129.002 52.9939H111.038L94.4052 12.3429H115.363ZM169.32 52.9939H146.699V0.965976H169.32V10.4135C168.522 10.9014 167.391 11.3671 165.927 11.8107C164.508 12.2099 162.977 12.5647 161.336 12.8752C159.695 13.1857 158.032 13.4296 156.346 13.607C154.705 13.7845 153.264 13.8732 152.022 13.8732V15.7361C153.264 15.7361 154.683 15.6695 156.28 15.5365C157.921 15.4034 159.562 15.2038 161.203 14.9377C162.844 14.6272 164.375 14.2724 165.794 13.8732C167.258 13.4296 168.433 12.9195 169.32 12.3429V52.9939Z" fill="#4B78EB"/>
<path d="M0.265778 65.6018C0.265778 64.7908 0.327111 64.1093 0.449778 63.5573C0.579259 63.0053 0.759852 62.559 0.991556 62.2182C1.23007 61.8775 1.5197 61.6322 1.86044 61.4822C2.208 61.3323 2.59644 61.2573 3.02578 61.2573C3.50282 61.2573 3.92193 61.3459 4.28311 61.5231C4.6443 61.6935 4.94415 61.9831 5.18267 62.392H6.08222V61.4107H9.03645V69.8031H6.08222V68.7502H5.21333C4.97482 69.1796 4.67156 69.4862 4.30356 69.6702C3.93556 69.8542 3.50963 69.9462 3.02578 69.9462C2.59644 69.9462 2.208 69.8713 1.86044 69.7213C1.5197 69.5714 1.23007 69.3261 0.991556 68.9853C0.759852 68.6446 0.579259 68.1982 0.449778 67.6462C0.327111 67.0942 0.265778 66.4128 0.265778 65.6018ZM2.06489 65.0702L1.88089 65.3462C2.22163 65.503 2.58963 65.6188 2.98489 65.6938C3.38015 65.7688 3.772 65.8062 4.16044 65.8062V65.4996C3.772 65.4996 3.40059 65.4587 3.04622 65.3769C2.69867 65.2951 2.37156 65.1929 2.06489 65.0702ZM6.65467 65.4587L6.52178 65.1622C6.3037 65.2508 6.08563 65.319 5.86756 65.3667C5.64948 65.4076 5.39052 65.428 5.09067 65.428V65.7245C5.41778 65.7245 5.70059 65.704 5.93911 65.6631C6.17763 65.6222 6.41615 65.5541 6.65467 65.4587ZM18.3379 63.0769H14.4228V61.5129H14.8316C14.8521 61.5947 14.8964 61.6833 14.9645 61.7787C15.0327 61.8673 15.1145 61.9525 15.2099 62.0342C15.3121 62.1092 15.4177 62.1739 15.5268 62.2285C15.6426 62.2762 15.7516 62.3034 15.8539 62.3102L15.9868 62.1058C15.7005 62.0581 15.4722 61.9559 15.3019 61.7991C15.1315 61.6356 15.0463 61.4652 15.0463 61.288V61.0325H17.653V61.5129H18.3379V63.0769ZM20.689 66.3071H18.5525V61.4107H20.689V62.8009H20.9548V61.4107H23.0912V66.4093H20.9548V64.8658H20.689V66.3071ZM14.4228 64.8658C14.4228 64.3819 14.5863 63.9867 14.9134 63.68C15.2405 63.3733 15.7346 63.22 16.3956 63.22C16.7296 63.22 17.0192 63.2609 17.2645 63.3427C17.5167 63.4245 17.7245 63.5403 17.8881 63.6902C18.0516 63.8333 18.1743 64.0071 18.2561 64.2116C18.3379 64.4092 18.3788 64.6273 18.3788 64.8658C18.3788 65.0975 18.3379 65.3122 18.2561 65.5098C18.1743 65.7074 18.0516 65.8812 17.8881 66.0311C17.7245 66.1742 17.5167 66.2867 17.2645 66.3685C17.0192 66.4502 16.7296 66.4911 16.3956 66.4911C15.7346 66.4911 15.2405 66.3378 14.9134 66.0311C14.5863 65.7245 14.4228 65.336 14.4228 64.8658ZM15.5165 64.4569L15.3325 64.7329C15.6188 64.8692 15.9391 64.9646 16.2934 65.0191C16.6546 65.0668 16.9919 65.0907 17.3054 65.0907V64.784C16.9919 64.784 16.6785 64.7568 16.365 64.7022C16.0515 64.6409 15.7687 64.5591 15.5165 64.4569ZM14.3614 68.2493C14.3614 67.9291 14.4534 67.6599 14.6374 67.4418C14.8282 67.2237 15.1111 67.0499 15.4859 66.9205C15.8607 66.7842 16.3275 66.6888 16.8863 66.6342C17.4451 66.5797 18.0925 66.5525 18.8285 66.5525C19.5645 66.5525 20.2119 66.5797 20.7708 66.6342C21.3296 66.6819 21.7964 66.7705 22.1712 66.9C22.546 67.0227 22.8254 67.1896 23.0094 67.4009C23.2002 67.6122 23.2956 67.8779 23.2956 68.1982C23.2956 68.5185 23.2002 68.7911 23.0094 69.016C22.8254 69.2409 22.546 69.4215 22.1712 69.5578C21.7964 69.6941 21.3296 69.7929 20.7708 69.8542C20.2119 69.9156 19.5645 69.9462 18.8285 69.9462C18.0925 69.9462 17.4451 69.919 16.8863 69.8645C16.3275 69.8099 15.8607 69.7145 15.4859 69.5782C15.1111 69.4488 14.8282 69.275 14.6374 69.0569C14.4534 68.8388 14.3614 68.5696 14.3614 68.2493ZM17.5916 67.728L17.4588 68.0245C17.6632 68.1199 17.8813 68.2016 18.113 68.2698C18.3447 68.3311 18.5798 68.3822 18.8183 68.4231C19.0636 68.4572 19.3056 68.4811 19.5441 68.4947C19.7894 68.5015 20.0245 68.4981 20.2494 68.4845V68.188C20.0382 68.2016 19.8167 68.2016 19.585 68.188C19.3533 68.1744 19.1216 68.1505 18.8899 68.1165C18.665 68.0756 18.4401 68.0245 18.2152 67.9631C17.9903 67.895 17.7825 67.8166 17.5916 67.728ZM28.3753 64.2933C28.3753 63.7754 28.4434 63.3256 28.5797 62.944C28.7228 62.5624 28.9171 62.2455 29.1624 61.9933C29.4145 61.7412 29.711 61.5572 30.0517 61.4413C30.3925 61.3187 30.7673 61.2573 31.1762 61.2573C31.5851 61.2573 31.9599 61.3187 32.3006 61.4413C32.6482 61.5572 32.9446 61.7412 33.19 61.9933C33.4421 62.2455 33.6363 62.5624 33.7726 62.944C33.9157 63.3256 33.9873 63.7754 33.9873 64.2933C33.9873 64.8113 33.9157 65.2611 33.7726 65.6427C33.6363 66.0243 33.4421 66.3412 33.19 66.5933C32.9446 66.8387 32.6482 67.0227 32.3006 67.1453C31.9599 67.268 31.5851 67.3293 31.1762 67.3293C30.7673 67.3293 30.3925 67.2714 30.0517 67.1556C29.711 67.0329 29.4145 66.8455 29.1624 66.5933C28.9171 66.3412 28.7228 66.0277 28.5797 65.6529C28.4434 65.2713 28.3753 64.8181 28.3753 64.2933ZM32.9037 69.8031H28.4775V67.5338H33.006C33.4353 67.5338 33.8305 67.5031 34.1917 67.4418V61.4107H37.146V69.8031H34.1917V69.5271C33.9941 69.6157 33.7863 69.6839 33.5682 69.7316C33.3569 69.7793 33.1354 69.8031 32.9037 69.8031ZM30.0517 63.8333L29.8677 64.1093C30.2085 64.2661 30.5765 64.3819 30.9717 64.4569C31.367 64.5319 31.7588 64.5693 32.1473 64.5693V64.2627C31.7588 64.2627 31.3874 64.2218 31.0331 64.14C30.6855 64.0582 30.3584 63.956 30.0517 63.8333ZM50.258 65.0191V61.4107H52.7011V62.1262H53.0385V61.4107H55.4816V65.8982H51.1371C50.8305 65.8982 50.6056 65.8301 50.4625 65.6938C50.3262 65.5507 50.258 65.3258 50.258 65.0191ZM58.5176 66.0005H55.87V61.4107H58.5176V62.3716H59.2945V64.784H58.5176V66.0005ZM51.9754 63.5062L51.8425 63.8027C52.4967 64.0276 53.1884 64.14 53.9176 64.14V63.8436C53.57 63.8436 53.2361 63.8129 52.9158 63.7516C52.6023 63.6902 52.2888 63.6085 51.9754 63.5062ZM50.1967 68.0449C50.1967 67.711 50.2785 67.4248 50.442 67.1862C50.6124 66.9409 50.8714 66.7433 51.2189 66.5933C51.5665 66.4366 52.0094 66.3242 52.5478 66.256C53.0862 66.1811 53.7234 66.1436 54.4594 66.1436C55.1954 66.1436 55.8326 66.1811 56.3709 66.256C56.9093 66.3242 57.3523 66.4366 57.6998 66.5933C58.0474 66.7433 58.3029 66.9409 58.4665 67.1862C58.6368 67.4248 58.722 67.711 58.722 68.0449C58.722 68.3788 58.6368 68.6685 58.4665 68.9138C58.3029 69.1523 58.0474 69.3465 57.6998 69.4965C57.3523 69.6532 56.9093 69.7656 56.3709 69.8338C55.8326 69.9088 55.1954 69.9462 54.4594 69.9462C53.7234 69.9462 53.0862 69.9088 52.5478 69.8338C52.0094 69.7656 51.5665 69.6532 51.2189 69.4965C50.8714 69.3465 50.6124 69.1523 50.442 68.9138C50.2785 68.6685 50.1967 68.3788 50.1967 68.0449ZM53.2225 67.5236L53.0896 67.82C53.294 67.9154 53.5121 67.9972 53.7438 68.0653C53.9755 68.1267 54.2106 68.1778 54.4491 68.2187C54.6945 68.2528 54.9364 68.2766 55.1749 68.2902C55.4203 68.2971 55.6554 68.2936 55.8803 68.28V67.9836C55.669 67.9972 55.4475 67.9972 55.2158 67.9836C54.9841 67.9699 54.7524 67.9461 54.5207 67.912C54.2958 67.8711 54.0709 67.82 53.846 67.7587C53.6211 67.6905 53.4133 67.6122 53.2225 67.5236ZM64.3128 62.9747V61.5129H64.9977C65.0181 61.5947 65.0624 61.6833 65.1306 61.7787C65.1987 61.8673 65.2805 61.9525 65.3759 62.0342C65.4781 62.1092 65.5838 62.1739 65.6928 62.2285C65.8086 62.2762 65.9177 62.3034 66.0199 62.3102L66.1528 62.1058C65.8666 62.0581 65.6383 61.9559 65.4679 61.7991C65.2975 61.6356 65.2123 61.4652 65.2123 61.288V61.0325H68.647V61.5129H69.5568V62.9747H64.3128ZM69.8226 66.2969V61.4107H72.5723V61.9627H73.3492V63.7107H72.5723V63.956H73.3492V65.704H72.5723V66.2969H69.8226ZM64.3128 64.7329C64.3128 64.5216 64.3537 64.3206 64.4355 64.1298C64.524 63.939 64.6706 63.772 64.875 63.6289C65.0795 63.4858 65.352 63.3733 65.6928 63.2916C66.0335 63.203 66.4595 63.1587 66.9706 63.1587C67.4817 63.1587 67.9076 63.203 68.2483 63.2916C68.5891 63.3733 68.8617 63.4858 69.0661 63.6289C69.2774 63.772 69.4239 63.939 69.5057 64.1298C69.5943 64.3206 69.6386 64.5216 69.6386 64.7329C69.6386 64.9373 69.5943 65.135 69.5057 65.3258C69.4239 65.5098 69.2774 65.6733 69.0661 65.8165C68.8617 65.9596 68.5891 66.0754 68.2483 66.164C67.9076 66.2458 67.4817 66.2867 66.9706 66.2867C66.4595 66.2867 66.0335 66.2458 65.6928 66.164C65.352 66.0754 65.0795 65.9596 64.875 65.8165C64.6706 65.6733 64.524 65.5098 64.4355 65.3258C64.3537 65.135 64.3128 64.9373 64.3128 64.7329ZM65.7746 64.5489C66.1153 64.7056 66.4833 64.8215 66.8786 64.8965C67.2738 64.9714 67.6657 65.0089 68.0541 65.0089V64.7022C67.6657 64.7022 67.2943 64.6613 66.9399 64.5796C66.5923 64.4978 66.2652 64.3956 65.9586 64.2729L65.7746 64.5489ZM64.2515 68.2289C64.2515 67.6292 64.5922 67.1828 65.2737 66.8898C65.9552 66.5968 67.0353 66.4502 68.5141 66.4502C69.9929 66.4502 71.0731 66.6036 71.7546 66.9102C72.436 67.2101 72.7768 67.6496 72.7768 68.2289C72.7768 68.5492 72.6916 68.8184 72.5212 69.0365C72.3577 69.2545 72.1021 69.4317 71.7546 69.568C71.407 69.7043 70.964 69.7997 70.4257 69.8542C69.8873 69.9156 69.2501 69.9462 68.5141 69.9462C67.7781 69.9462 67.1409 69.9122 66.6026 69.844C66.0642 69.7827 65.6212 69.6805 65.2737 69.5373C64.9261 69.4011 64.6672 69.2239 64.4968 69.0058C64.3332 68.7945 64.2515 68.5356 64.2515 68.2289ZM67.1443 68.0551C67.3488 68.1505 67.5669 68.2323 67.7986 68.3005C68.0303 68.3618 68.2654 68.4129 68.5039 68.4538C68.7492 68.4879 68.9912 68.5117 69.2297 68.5253C69.475 68.5322 69.7101 68.5288 69.935 68.5151V68.2187C69.7238 68.2323 69.5023 68.2323 69.2706 68.2187C69.0389 68.2051 68.8072 68.1812 68.5755 68.1471C68.3506 68.1062 68.1257 68.0551 67.9008 67.9938C67.6759 67.9256 67.468 67.8473 67.2772 67.7587L67.1443 68.0551ZM78.2755 62.8316C78.2755 62.5385 78.3641 62.2932 78.5413 62.0956C78.7253 61.8911 78.9979 61.7276 79.3591 61.6049C79.7271 61.4822 80.1871 61.3936 80.7391 61.3391C81.2979 61.2846 81.9521 61.2573 82.7018 61.2573C84.201 61.2573 85.3118 61.3732 86.0342 61.6049C86.7634 61.8298 87.128 62.2387 87.128 62.8316C87.128 63.4245 86.7634 63.8368 86.0342 64.0685C85.3118 64.2933 84.201 64.4058 82.7018 64.4058C81.9521 64.4058 81.2979 64.3819 80.7391 64.3342C80.1871 64.2797 79.7271 64.1911 79.3591 64.0685C78.9979 63.9458 78.7253 63.7856 78.5413 63.588C78.3641 63.3836 78.2755 63.1314 78.2755 62.8316ZM81.5876 62.5045L81.4751 62.8111C81.8704 62.9338 82.2861 63.0224 82.7222 63.0769C83.1584 63.1246 83.5707 63.1485 83.9591 63.1485V62.8418C83.5707 62.8418 83.1754 62.8145 82.7733 62.76C82.3713 62.6987 81.976 62.6135 81.5876 62.5045ZM87.036 66.0005H78.3675V64.5693H87.036V66.0005ZM81.8636 69.9667C80.6437 69.9667 79.7544 69.8236 79.1955 69.5373C78.6435 69.2579 78.3675 68.8252 78.3675 68.2391V67.8711C78.6606 67.8711 78.9264 67.8677 79.1649 67.8609C79.4034 67.8473 79.6351 67.8302 79.86 67.8098C80.0849 67.7893 80.3132 67.7621 80.5449 67.728C80.7834 67.6939 81.0458 67.6496 81.332 67.5951V67.3191C81.0458 67.3736 80.7834 67.4179 80.5449 67.452C80.3132 67.4861 80.0849 67.5133 79.86 67.5338C79.6351 67.5542 79.4034 67.5713 79.1649 67.5849C78.9264 67.5917 78.6606 67.5951 78.3675 67.5951V66.2458H87.036V67.5849C86.5998 67.7348 86.1228 67.8473 85.6049 67.9222C85.0938 67.9904 84.5827 68.0245 84.0716 68.0245V68.3005C84.5827 68.3005 85.0938 68.2664 85.6049 68.1982C86.1228 68.1233 86.5998 68.0108 87.036 67.8609V69.4045C86.375 69.5816 85.6219 69.7179 84.7769 69.8133C83.9387 69.9156 82.9676 69.9667 81.8636 69.9667ZM100.046 63.2813C100.046 62.6271 100.267 62.1262 100.71 61.7787C101.153 61.4311 101.835 61.2573 102.755 61.2573C103.682 61.2573 104.366 61.4311 104.809 61.7787C105.252 62.1262 105.474 62.6271 105.474 63.2813C105.474 63.9288 105.252 64.4296 104.809 64.784C104.366 65.1316 103.682 65.3053 102.755 65.3053C101.835 65.3053 101.153 65.1316 100.71 64.784C100.267 64.4365 100.046 63.9356 100.046 63.2813ZM105.658 65.1827V61.4107H108.408V62.0138H109.185V64.4262H108.408V65.1827H105.658ZM101.733 63.2405C102.387 63.4653 103.078 63.5778 103.808 63.5778V63.2813C103.46 63.2813 103.126 63.2507 102.806 63.1893C102.492 63.128 102.179 63.0462 101.865 62.944L101.733 63.2405ZM103.849 69.9462C102.622 69.9462 101.698 69.7588 101.078 69.384C100.458 69.0092 100.148 68.4742 100.148 67.7791V67.3089C100.68 67.3089 101.167 67.2885 101.61 67.2476C102.053 67.2067 102.52 67.1351 103.01 67.0329V66.7773C102.52 66.8796 102.053 66.9511 101.61 66.992C101.167 67.0329 100.68 67.0533 100.148 67.0533V65.4382H108.408V67.36C107.971 67.5099 107.511 67.6224 107.028 67.6973C106.551 67.7655 106.057 67.7996 105.545 67.7996V68.0551C106.057 68.0551 106.551 68.0211 107.028 67.9529C107.511 67.8779 107.971 67.7655 108.408 67.6156V69.5067C107.747 69.6839 107.038 69.7997 106.281 69.8542C105.525 69.9156 104.714 69.9462 103.849 69.9462ZM119.406 63.9151V61.9525C119.522 61.9388 119.638 61.9252 119.753 61.9116C119.876 61.8979 119.999 61.8809 120.121 61.8605V61.4107H122.871V69.8031H120.121V66.0516C120.006 66.0856 119.886 66.1163 119.764 66.1436C119.648 66.164 119.529 66.1879 119.406 66.2151V64.2525C119.522 64.2388 119.638 64.2252 119.753 64.2116C119.876 64.1911 119.999 64.1673 120.121 64.14V63.7925C119.883 63.847 119.644 63.8879 119.406 63.9151ZM114.203 67.5236V64.8658C114.373 64.8658 114.554 64.8556 114.745 64.8351C114.942 64.8147 115.136 64.7874 115.327 64.7533C115.525 64.7125 115.712 64.6648 115.889 64.6102C116.073 64.5557 116.237 64.4944 116.38 64.4262V64.1196C116.237 64.1877 116.073 64.2491 115.889 64.3036C115.712 64.3581 115.525 64.4058 115.327 64.4467C115.136 64.4808 114.942 64.508 114.745 64.5285C114.554 64.5489 114.373 64.5591 114.203 64.5591V61.4107H119.12V66.3276C118.786 66.4298 118.411 66.515 117.995 66.5831C117.58 66.6445 117.171 66.6751 116.769 66.6751V66.9818C116.966 66.9818 117.201 66.9682 117.474 66.9409C117.747 66.9136 118.023 66.8762 118.302 66.8285C118.581 66.7808 118.851 66.7228 119.109 66.6547C119.375 66.5865 119.597 66.5116 119.774 66.4298V69.3227C119.583 69.4045 119.362 69.4726 119.109 69.5271C118.864 69.5885 118.602 69.6396 118.322 69.6805C118.043 69.7213 117.753 69.7486 117.453 69.7622C117.16 69.7827 116.874 69.7929 116.595 69.7929C116.111 69.7929 115.712 69.7452 115.399 69.6498C115.092 69.5612 114.85 69.4215 114.673 69.2307C114.496 69.0399 114.373 68.8048 114.305 68.5253C114.237 68.2391 114.203 67.9052 114.203 67.5236ZM128.258 63.3222V61.4107H136.926V63.3222H134.442C134.585 63.5948 134.858 63.7856 135.26 63.8947C135.662 64.0037 136.217 64.0582 136.926 64.0582V65.9698C136.292 65.9698 135.733 65.9528 135.25 65.9187C134.773 65.8846 134.336 65.8267 133.941 65.7449C133.546 65.6631 133.171 65.5541 132.817 65.4178C132.469 65.2747 132.105 65.0975 131.723 64.8862L131.426 65.0702C131.542 65.1588 131.672 65.244 131.815 65.3258C131.965 65.4076 132.125 65.4859 132.295 65.5609C131.723 65.7176 131.116 65.8267 130.476 65.888C129.835 65.9493 129.096 65.9766 128.258 65.9698V64.0582C128.966 64.0582 129.518 64.0037 129.914 63.8947C130.316 63.7856 130.588 63.5948 130.731 63.3222H128.258ZM134.166 69.8031H131.018V68.3516H128.258V66.1845H136.926V68.3516H134.166V69.8031ZM142.312 63.3325V61.4107H145.072V62.6578H150.981V64.6205H143.6C143.191 64.6205 142.875 64.508 142.65 64.2831C142.425 64.0582 142.312 63.7413 142.312 63.3325ZM142.312 66.8591V64.8965H150.981V66.8591H142.312ZM142.363 67.0942H145.307C145.287 67.2782 145.294 67.4248 145.328 67.5338C145.369 67.6428 145.44 67.728 145.543 67.7893C145.645 67.8507 145.781 67.8916 145.951 67.912C146.129 67.9325 146.34 67.9427 146.585 67.9427C146.994 67.9495 147.383 67.9461 147.751 67.9325C148.125 67.9188 148.49 67.895 148.844 67.8609C149.199 67.8268 149.55 67.7825 149.897 67.728C150.252 67.6667 150.613 67.5883 150.981 67.4929V69.476C150.64 69.5646 150.303 69.6396 149.969 69.7009C149.635 69.7622 149.287 69.8099 148.926 69.844C148.572 69.8781 148.2 69.9019 147.812 69.9156C147.43 69.936 147.021 69.9462 146.585 69.9462C145.754 69.9462 145.055 69.8951 144.49 69.7929C143.924 69.6907 143.474 69.5271 143.14 69.3022C142.813 69.0773 142.588 68.7843 142.466 68.4231C142.343 68.0619 142.309 67.619 142.363 67.0942ZM172.352 69.8031H169.296V69.4249C169.078 69.5271 168.829 69.6123 168.55 69.6805C168.27 69.7554 167.967 69.7929 167.64 69.7929H166.485C166.001 69.7929 165.602 69.7452 165.289 69.6498C164.982 69.5612 164.74 69.4215 164.563 69.2307C164.386 69.0399 164.263 68.8048 164.195 68.5253C164.127 68.2391 164.093 67.9052 164.093 67.5236V61.4107H167.088V66.716C167.088 66.8455 167.129 66.9375 167.211 66.992C167.299 67.0465 167.415 67.0738 167.558 67.0738C167.647 67.0738 167.763 67.0704 167.906 67.0636C168.049 67.0499 168.199 67.0295 168.356 67.0022C168.519 66.975 168.683 66.9443 168.846 66.9102C169.01 66.8693 169.16 66.8182 169.296 66.7569V61.4107H172.352V64.0787H173.129V66.4911H172.352V69.8031ZM178.148 68.1062V61.4107H180.693V63.2507H181.03V61.4107H183.576V69.8031H179.845C178.713 69.8031 178.148 69.2375 178.148 68.1062ZM186.816 69.8031H183.964V61.4107H186.816V69.8031ZM179.834 65.704L179.65 65.98C179.991 66.1368 180.376 66.2526 180.805 66.3276C181.235 66.4025 181.644 66.44 182.032 66.44V66.1333C181.644 66.1333 181.255 66.0925 180.867 66.0107C180.485 65.9289 180.141 65.8267 179.834 65.704Z" fill="#4B78EB"/>
</svg>
