<svg width="568" height="698" viewBox="0 0 568 698" fill="none" xmlns="http://www.w3.org/2000/svg">
<path d="M234.338 276.024C239.021 283.351 240.038 291.129 237.387 299.36C235.224 307.279 230.602 313.501 223.52 318.029C215.705 323.024 207.75 324.841 199.655 323.479C191.316 322.274 184.805 318.008 180.122 310.681C175.439 303.355 174.222 295.532 176.473 287.213C179.035 279.383 184.102 273.048 191.673 268.208C198.755 263.681 206.266 261.976 214.204 263.094C222.943 264.388 229.655 268.698 234.338 276.024ZM266.883 389.9C275.674 384.28 284.474 382.439 293.281 384.378C302.733 386.248 309.893 392.336 314.76 402.641C320.32 414.567 323.165 425.477 323.297 435.369C323.32 446.706 320.008 457.94 313.362 469.068C311.3 471.763 308.535 473.358 305.068 473.854C302.246 474.282 299.365 473.543 296.427 471.637C293.401 470.132 291.351 468.002 290.278 465.247C288.962 462.649 289.212 460.081 291.03 457.543C293.112 453.804 294.583 450.455 295.444 447.497C296.569 443.338 296.816 438.88 296.184 434.124C286.659 440.212 278.216 442.341 270.854 440.511C264.781 438.545 259.403 433.899 254.72 426.572C250.192 419.49 249.522 412.522 252.71 405.669C255.076 399.684 259.8 394.428 266.883 389.9Z" fill="#4B78EB"/>
<path d="M271.61 263.001C241.111 203.501 241.612 33.0012 306.11 19.0014C373.612 14.0012 390.111 230.499 311.11 287.501C289.111 305.499 295.611 69.0144 404.611 19.0014C458.199 2.95988 501.421 183.596 448.435 277.999M448.435 277.999C428.746 313.078 356.111 344.499 345.111 332.999C333.632 320.999 343.095 285.599 448.435 277.999ZM448.435 277.999C536.611 271.637 608.011 433.399 479.611 432.999C449.445 432.665 380.311 420.199 345.111 372.999" stroke="#4B78EB" stroke-width="35"/>
</svg>
